<svg width="116" height="117" viewBox="0 0 116 117" fill="none" xmlns="http://www.w3.org/2000/svg">
<path d="M85.52 96.38C95.4667 96.38 103.53 88.3166 103.53 78.37C103.53 68.4233 95.4667 60.36 85.52 60.36C75.5734 60.36 67.51 68.4233 67.51 78.37C67.51 88.3166 75.5734 96.38 85.52 96.38Z" stroke="#FF8B00" stroke-width="4" stroke-linecap="round" stroke-linejoin="round"/>
<path d="M77.22 95.36V114L85.63 109.22L93.82 113.88V95.36" stroke="#FF8B00" stroke-width="4" stroke-linecap="round" stroke-linejoin="round"/>
<path d="M78.3301 77.68L83.4601 83.73L92.2501 73.11" stroke="#FF8B00" stroke-width="4" stroke-linecap="round" stroke-linejoin="round"/>
<path d="M67.14 103.42H20.1C15.62 103.42 12 99.79 12 95.32V12.1C12 7.63 15.63 4 20.1 4H81.22C85.7 4 89.32 7.63 89.32 12.1V51.89" stroke="#00C16D" stroke-width="4" stroke-linecap="round" stroke-linejoin="round"/>
<path d="M26.72 19.47H74.61" stroke="#00C16D" stroke-width="4" stroke-linecap="round" stroke-linejoin="round"/>
<path d="M26.72 31.65H74.61" stroke="#00C16D" stroke-width="4" stroke-linecap="round" stroke-linejoin="round"/>
<path d="M26.72 43.83H58.94" stroke="#00C16D" stroke-width="4" stroke-linecap="round" stroke-linejoin="round"/>
<path d="M57.24 56.17H26.72V68.29H57.24V56.17Z" stroke="#00C16D" stroke-width="4" stroke-linecap="round" stroke-linejoin="round"/>
</svg>
