<svg width="116" height="117" viewBox="0 0 116 117" fill="none" xmlns="http://www.w3.org/2000/svg">
<path d="M40.2876 56.6582L55.9329 75.7248L83.811 43.1423" stroke="#FF8B00" stroke-width="4" stroke-linecap="round" stroke-linejoin="round"/>
<path d="M25.3997 31.1143C28.3131 27.1852 35.2359 19.0596 46.9965 14.9701C69.422 7.1742 89.2103 21.0999 91.2862 22.6056" stroke="#00C16D" stroke-width="4" stroke-linecap="round" stroke-linejoin="round"/>
<path d="M89.9231 14.489C90.8853 17.5094 91.8475 20.5297 92.8098 23.5501C89.6558 23.9867 86.5107 24.4232 83.3567 24.8598" stroke="#00C16D" stroke-width="4" stroke-linecap="round" stroke-linejoin="round"/>
<path d="M102.664 39.8279C104.695 44.2827 108.482 54.2615 106.388 66.53C102.396 89.9356 80.6568 100.556 78.3403 101.643" stroke="#00C16D" stroke-width="4" stroke-linecap="round" stroke-linejoin="round"/>
<path d="M86.1096 104.369L76.7812 102.534C77.9217 99.5579 79.0532 96.591 80.1936 93.6241" stroke="#00C16D" stroke-width="4" stroke-linecap="round" stroke-linejoin="round"/>
<path d="M56.7793 103.541C51.9057 103.095 41.3657 101.42 31.7522 93.5083C13.4251 78.4244 15.011 54.2793 15.216 51.7223" stroke="#00C16D" stroke-width="4" stroke-linecap="round" stroke-linejoin="round"/>
<path d="M8.99707 57.1126C11.073 54.7159 13.1489 52.3281 15.2249 49.9315C17.2385 52.3905 19.252 54.8585 21.2656 57.3175" stroke="#00C16D" stroke-width="4" stroke-linecap="round" stroke-linejoin="round"/>
</svg>
