<svg width="116" height="117" viewBox="0 0 116 117" fill="none" xmlns="http://www.w3.org/2000/svg">
<path d="M62.5614 24.9604C63.9156 23.3835 65.2609 21.8155 66.615 20.2385C69.4125 17.0313 73.5285 15 78.1256 15C86.5625 15 93.3958 21.8333 93.3958 30.2702C93.3958 38.7071 86.5625 45.5404 78.1256 45.5404C73.7423 45.5404 69.7867 43.6962 67.007 40.7384C61.3052 34.11 55.6123 27.4816 49.9105 20.8622C47.113 17.2985 42.7654 15 37.8832 15C29.4463 15 22.613 21.8333 22.613 30.2702C22.613 38.7071 29.4463 45.5404 37.8832 45.5404C42.6318 45.5404 46.8636 43.3755 49.6699 39.9811V39.9544C50.7569 38.6893 51.8438 37.4242 52.9218 36.168" stroke="#FF8B00" stroke-width="4" stroke-linecap="round" stroke-linejoin="round"/>
<path d="M89.4311 68.6164C89.4311 68.6164 84.0768 75.3784 76.5308 76.3673" stroke="#00C16D" stroke-width="4" stroke-linecap="round" stroke-linejoin="round"/>
<path d="M107 44.3391C107 66.2466 97.396 74.336 88.6116 77.7037C80.7538 80.7238 75.4351 84.7775 75.4351 101.295" stroke="#00C16D" stroke-width="4" stroke-linecap="round" stroke-linejoin="round"/>
<path d="M26.5686 68.6164C26.5686 68.6164 31.923 75.3784 39.469 76.3673" stroke="#00C16D" stroke-width="4" stroke-linecap="round" stroke-linejoin="round"/>
<path d="M9 44.3391C9 66.2466 18.604 74.336 27.3884 77.7037C35.2462 80.7238 40.5649 84.7775 40.5649 101.295" stroke="#00C16D" stroke-width="4" stroke-linecap="round" stroke-linejoin="round"/>
</svg>
