<svg width="116" height="117" viewBox="0 0 116 117" fill="none" xmlns="http://www.w3.org/2000/svg">
<path d="M100.113 60.1602H15.8867C12.0833 60.1602 9 63.2434 9 67.0469V95.5471C9 99.3505 12.0833 102.434 15.8867 102.434H100.113C103.917 102.434 107 99.3505 107 95.5471V67.0469C107 63.2434 103.917 60.1602 100.113 60.1602Z" stroke="#00C16D" stroke-width="4" stroke-linecap="round" stroke-linejoin="round"/>
<path d="M44.7075 73.604H71.2922" stroke="#FF8B00" stroke-width="4" stroke-linecap="round" stroke-linejoin="round"/>
<path d="M20.2075 51.5095V20.0693C20.2075 17.2718 22.4793 15 25.2768 15H37.4466C38.7206 15 39.9501 15.4811 40.8855 16.3453L46.623 21.6551C47.5584 22.5193 48.7879 23.0004 50.0619 23.0004H90.7319C93.5293 23.0004 95.8012 25.2722 95.8012 28.0696V50.868" stroke="#00C16D" stroke-width="4" stroke-linecap="round" stroke-linejoin="round"/>
<path d="M86.5534 32.2925H55.8081V42.538H86.5534V32.2925Z" stroke="#FF8B00" stroke-width="4" stroke-linecap="round" stroke-linejoin="round"/>
</svg>
