<svg width="116" height="117" viewBox="0 0 116 117" fill="none" xmlns="http://www.w3.org/2000/svg">
<g clip-path="url(#clip0_19_21)">
<path d="M59.3904 59.1768L59.3708 72.2042M59.3904 59.1768C59.3904 59.1768 49.3506 61.5347 42.4324 54.7067C37.4125 49.7551 35.8077 42.1116 38.3715 35.2933C44.8885 33.1418 51.1707 33.2498 56.4744 39.007C63.9602 47.1221 59.3904 59.1768 59.3904 59.1768Z" stroke="#FF8B00" stroke-width="4" stroke-linecap="round" stroke-linejoin="round"/>
<path d="M59.5176 59.3439C61.2104 59.4618 68.2657 59.7663 74.5577 54.7067C79.421 50.7965 81.1432 45.8548 81.701 43.939C78.2761 40.1369 73.1388 38.6141 68.5984 40.0484C63.5687 41.64 61.4844 46.1692 61.1517 46.9256" stroke="#FF8B00" stroke-width="4" stroke-linecap="round" stroke-linejoin="round"/>
<path d="M35.6511 78.8751V113.035L58.4021 101.54L81.1628 113.035V79.101" stroke="#00C16D" stroke-width="4" stroke-linecap="round" stroke-linejoin="round"/>
<path d="M103.043 47.7115C103.043 52.2014 96.3399 55.5712 95.0287 59.6287C93.6685 63.8337 97.0738 70.5045 94.5394 74.0021C91.9756 77.5291 84.5877 76.3305 81.065 78.9045C77.5423 81.4786 76.4463 88.8961 72.2679 90.2617C68.0896 91.6273 62.9719 86.2631 58.5 86.2631C54.0281 86.2631 48.7733 91.5782 44.732 90.2617C40.6906 88.9452 39.4185 81.4491 35.9349 78.9045C32.4513 76.36 25.0243 77.5389 22.4605 74.0021C19.9261 70.5045 23.3314 63.8337 21.9712 59.6287C20.6111 55.4238 13.957 52.2014 13.957 47.7115C13.957 43.2217 20.66 39.8519 21.9712 35.7944C23.2825 31.7368 19.9261 24.9186 22.4605 21.421C24.9949 17.9235 32.4122 19.0926 35.9349 16.5186C39.4577 13.9445 40.5536 6.52699 44.732 5.16138C48.9103 3.79576 54.0281 9.15997 58.5 9.15997C62.9719 9.15997 68.2266 3.84488 72.2679 5.16138C76.3093 6.47787 77.5814 13.974 81.065 16.5186C84.5779 19.0926 91.9756 17.8842 94.5394 21.421C97.1032 24.9579 93.6685 31.5894 95.0287 35.7944C96.3399 39.8421 103.043 43.2217 103.043 47.7115Z" stroke="#00C16D" stroke-width="4" stroke-linecap="round" stroke-linejoin="round"/>
</g>
<defs>
<clipPath id="clip0_19_21">
<rect width="93" height="112" fill="white" transform="translate(12 3)"/>
</clipPath>
</defs>
</svg>
